<svg width="16" height="16" viewBox="0 0 16 16" fill="none" xmlns="http://www.w3.org/2000/svg">
<rect width="15.6" height="16" rx="4" fill="#4FD14D"/>
<g clip-path="url(#clip0_2_7)">
<path d="M7.36887 4.19512C7.41289 4.11644 7.47595 4.05115 7.55175 4.00578C7.62755 3.9604 7.71345 3.93652 7.80087 3.93652C7.8883 3.93652 7.9742 3.9604 8.05 4.00578C8.1258 4.05115 8.18885 4.11644 8.23287 4.19512L9.35087 6.19429L11.5221 6.68429C11.6075 6.70362 11.6865 6.74593 11.7513 6.80701C11.8162 6.86809 11.8645 6.94579 11.8915 7.03238C11.9184 7.11897 11.9232 7.21142 11.9052 7.3005C11.8872 7.38959 11.8471 7.47221 11.7889 7.54012L10.3089 9.26554L10.5329 11.5676C10.5417 11.6583 10.5276 11.7497 10.4918 11.8329C10.4561 11.9161 10.4001 11.988 10.3293 12.0416C10.2586 12.0952 10.1755 12.1284 10.0886 12.1381C10.0016 12.1478 9.91371 12.1336 9.83367 12.0968L7.80087 11.1635L5.76807 12.0968C5.68804 12.1336 5.60015 12.1478 5.51317 12.1381C5.4262 12.1284 5.34319 12.0952 5.27242 12.0416C5.20166 11.988 5.14562 11.9161 5.1099 11.8329C5.07418 11.7497 5.06004 11.6583 5.06887 11.5676L5.29287 9.26554L3.81287 7.54054C3.75456 7.47263 3.71438 7.38998 3.69632 7.30084C3.67826 7.21169 3.68297 7.11918 3.70997 7.03252C3.73697 6.94586 3.78532 6.8681 3.8502 6.807C3.91507 6.74589 3.99419 6.70358 4.07967 6.68429L6.25087 6.19429L7.36887 4.19512Z" fill="white"/>
</g>
<defs>
<clipPath id="clip0_2_7">
<rect width="9.6" height="10" fill="white" transform="translate(3 3)"/>
</clipPath>
</defs>
</svg>
