<svg width="16" height="17" viewBox="0 0 16 17" fill="none" xmlns="http://www.w3.org/2000/svg">
<g clip-path="url(#clip0_2_1056)">
<path fill-rule="evenodd" clip-rule="evenodd" d="M6.99999 1.83334C6.09638 1.83342 5.2059 2.04959 4.40282 2.46381C3.59975 2.87803 2.90738 3.47829 2.38348 4.21451C1.85957 4.95074 1.51933 5.80158 1.39112 6.69604C1.26292 7.59051 1.35049 8.50266 1.6465 9.3564C1.94252 10.2101 2.43842 10.9807 3.09281 11.6038C3.7472 12.2269 4.54112 12.6845 5.40833 12.9384C6.27553 13.1923 7.19088 13.2351 8.078 13.0633C8.96512 12.8915 9.79828 12.51 10.508 11.9507L12.9427 14.3853C13.0684 14.5068 13.2368 14.574 13.4116 14.5725C13.5864 14.5709 13.7536 14.5008 13.8772 14.3772C14.0008 14.2536 14.0709 14.0864 14.0724 13.9116C14.074 13.7368 14.0068 13.5684 13.8853 13.4427L11.4507 11.008C12.1093 10.1724 12.5194 9.16828 12.6341 8.1105C12.7487 7.05271 12.5632 5.98402 12.0988 5.02674C11.6344 4.06945 10.9099 3.26225 10.0082 2.6975C9.10646 2.13275 8.06396 1.83327 6.99999 1.83334ZM2.66665 7.50001C2.66665 6.35074 3.1232 5.24854 3.93586 4.43588C4.74851 3.62322 5.85071 3.16668 6.99999 3.16668C8.14926 3.16668 9.25146 3.62322 10.0641 4.43588C10.8768 5.24854 11.3333 6.35074 11.3333 7.50001C11.3333 8.64928 10.8768 9.75148 10.0641 10.5641C9.25146 11.3768 8.14926 11.8333 6.99999 11.8333C5.85071 11.8333 4.74851 11.3768 3.93586 10.5641C3.1232 9.75148 2.66665 8.64928 2.66665 7.50001Z" fill="#7C7C7C"/>
</g>
<defs>
<clipPath id="clip0_2_1056">
<rect width="16" height="16" fill="white" transform="translate(0 0.5)"/>
</clipPath>
</defs>
</svg>
